<svg xmlns="http://www.w3.org/2000/svg" xmlns:xlink="http://www.w3.org/1999/xlink" xml:space="preserve" version="1.1" style="shape-rendering:geometricPrecision;text-rendering:geometricPrecision;image-rendering:optimizeQuality;" viewBox="0 0 310 242.5" x="0px" y="0px" fill-rule="evenodd" clip-rule="evenodd"><defs><style type="text/css">
   
    .fil0 {fill:black}
   
  </style></defs><g><path class="fil0" d="M5 0l300 0c2,0 5,2 5,5l0 49c-23,1 -40,20 -40,43 0,22 17,41 40,43l0 48c0,3 -3,6 -5,6l-300 0c-3,0 -5,-3 -5,-6l0 -48c23,-2 40,-21 40,-43 0,-23 -18,-42 -40,-43l0 -49c0,-3 2,-5 5,-5zm150 45l13 40 41 0 -34 24 13 39 -33 -24 -34 24 13 -39 -33 -24 41 0 13 -40z"/></g><text x="0" y="209" fill="#000000" font-size="5px" font-weight="bold" font-family="'Helvetica Neue', Helvetica, Arial-Unicode, Arial, Sans-serif">Created by iejank</text><text x="0" y="214" fill="#000000" font-size="5px" font-weight="bold" font-family="'Helvetica Neue', Helvetica, Arial-Unicode, Arial, Sans-serif">from the Noun Project</text></svg>